<?xml version="1.0" encoding="UTF-8" standalone="no"?><!DOCTYPE svg PUBLIC "-//W3C//DTD SVG 1.1//EN" "http://www.w3.org/Graphics/SVG/1.1/DTD/svg11.dtd"><svg width="100%" height="100%" viewBox="0 0 24 24" version="1.1" xmlns="http://www.w3.org/2000/svg" xmlns:xlink="http://www.w3.org/1999/xlink" xml:space="preserve" xmlns:serif="http://www.serif.com/" style="fill-rule:evenodd;clip-rule:evenodd;stroke-linejoin:round;stroke-miterlimit:1.41421;"><path id="Forma-1" serif:id="Forma 1" d="M22.369,17.59c-2.047,-1.774 -3.94,-4.277 -3.94,-10.527c0,-3.619 -2.937,-6.563 -6.547,-6.563c-3.61,0 -6.548,2.944 -6.548,6.563c0,6.255 -1.893,8.756 -3.941,10.528c-0.567,0.496 -0.893,1.21 -0.893,1.959c0,0.413 0.333,0.747 0.745,0.747l7.067,0c0.345,1.659 1.814,2.909 3.57,2.909c1.755,0 3.224,-1.25 3.569,-2.909l7.068,0c0.411,0 0.744,-0.334 0.744,-0.747c0,-0.755 -0.326,-1.47 -0.894,-1.96Zm-10.487,4.123c-0.928,0 -1.72,-0.59 -2.024,-1.416l4.047,0c-0.303,0.826 -1.096,1.416 -2.023,1.416Zm-9.599,-2.909c0.027,-0.03 0.056,-0.058 0.086,-0.084c3.123,-2.703 4.455,-6.189 4.455,-11.657c0,-2.795 2.269,-5.07 5.058,-5.07c2.789,0 5.057,2.275 5.057,5.07c0,5.463 1.333,8.949 4.456,11.657c0.031,0.027 0.06,0.054 0.087,0.084l-19.199,0Z" style="fill:#939393;fill-rule:nonzero;"/></svg>