<?xml version="1.0" encoding="UTF-8" standalone="no"?><!DOCTYPE svg PUBLIC "-//W3C//DTD SVG 1.1//EN" "http://www.w3.org/Graphics/SVG/1.1/DTD/svg11.dtd"><svg width="100%" height="100%" viewBox="0 0 16 16" version="1.1" xmlns="http://www.w3.org/2000/svg" xmlns:xlink="http://www.w3.org/1999/xlink" xml:space="preserve" xmlns:serif="http://www.serif.com/" style="fill-rule:evenodd;clip-rule:evenodd;stroke-linejoin:round;stroke-miterlimit:1.41421;"><path id="Forma-1" serif:id="Forma 1" d="M15.796,14.856l-3.845,-3.844c0.953,-1.162 1.528,-2.651 1.528,-4.273c0,-3.72 -3.019,-6.739 -6.74,-6.739c-3.723,0 -6.739,3.019 -6.739,6.739c0,3.721 3.016,6.74 6.739,6.74c1.622,0 3.107,-0.571 4.269,-1.525l3.845,3.842c0.261,0.261 0.682,0.261 0.943,0c0.261,-0.258 0.261,-0.682 0,-0.94Zm-9.057,-2.719c-2.979,0 -5.401,-2.421 -5.401,-5.398c0,-2.976 2.422,-5.401 5.401,-5.401c2.977,0 5.402,2.425 5.402,5.401c0,2.977 -2.425,5.398 -5.402,5.398Z" style="fill:#939393;fill-rule:nonzero;"/></svg>